<svg width="400.000000" height="300.000000" viewBox="0 0 400 300" fill="none" xmlns="http://www.w3.org/2000/svg" xmlns:xlink="http://www.w3.org/1999/xlink">
	<desc>
			Created with Pixso.
	</desc>
	<defs>
		<clipPath id="clip18006_4892">
			<rect id="loading" width="400.000000" height="300.000000" fill="white" fill-opacity="0"/>
		</clipPath>
	</defs>
	<g clip-path="url(#clip18006_4892)">
		<mask id="mask18006_4894" mask-type="alpha" maskUnits="userSpaceOnUse" x="45.588867" y="44.317871" width="311.276611" height="218.409424">
			<path id="Vector" d="M232.03 64.48C296.4 97.49 314.79 75.8 343.74 119.78C372.69 163.76 352.96 245.95 292.13 259.43C231.29 272.91 220.38 239.72 137.82 254.12C55.26 268.51 13.38 142.92 75.11 90.55C136.85 38.18 167.66 31.47 232.03 64.48Z" fill="#FFFFFF" fill-opacity="1.000000" fill-rule="nonzero"/>
		</mask>
		<g mask="url(#mask18006_4894)">
			<path id="Vector" d="M232.03 64.48C296.4 97.49 314.79 75.8 343.74 119.78C372.69 163.76 352.96 245.95 292.13 259.43C231.29 272.91 220.38 239.72 137.82 254.12C55.26 268.51 13.38 142.92 75.11 90.55C136.85 38.18 167.66 31.47 232.03 64.48Z" fill="#F2EBF9" fill-opacity="1.000000" fill-rule="evenodd"/>
			<path id="Vector" d="M167.66 -0.68C172.36 60.47 194.28 97.49 233.39 110.38C272.51 123.27 325.66 104.76 392.84 54.85" stroke="#FFFFFF" stroke-opacity="1.000000" stroke-width="1.320000"/>
			<path id="Vector" d="M190.8 -0.68C201.23 71.21 177.81 108.36 120.56 110.76C34.68 114.35 96.73 49.13 126.03 75.13C155.32 101.13 152.94 157.42 107.23 196C76.75 221.72 42.03 234.58 3.06 234.58M367.76 196.82C240.85 188.62 140.19 233.81 65.76 332.4" stroke="#FFFFFF" stroke-opacity="1.000000" stroke-width="1.320000"/>
			<path id="Vector" d="M34.68 195.88C117.93 218.19 171.6 263.7 195.69 332.4" stroke="#FFFFFF" stroke-opacity="1.000000" stroke-width="1.320000"/>
			<path id="Vector" d="M367.76 116.95C311.59 173.02 272.39 189.32 250.14 165.86C216.76 130.66 280.51 102.94 289.91 134.4C299.32 165.86 249.05 190.82 182.12 201.93C137.5 209.33 84.7 241.71 23.72 299.08M326.21 2.37C326.21 -29.36 307.87 -55.08 285.26 -55.08C262.64 -55.08 244.31 -29.36 244.31 2.37C244.31 34.1 262.64 59.82 285.26 59.82C307.87 59.82 326.21 34.1 326.21 2.37ZM243.7 332.4C235.44 283.39 246.24 257.1 276.08 253.53C305.93 249.97 339.12 263.11 375.64 292.96" stroke="#FFFFFF" stroke-opacity="1.000000" stroke-width="1.320000"/>
			<path id="Vector" d="M367.76 153.38C314.59 205.22 291.78 268.07 299.32 341.92" stroke="#FFFFFF" stroke-opacity="1.000000" stroke-width="1.320000"/>
			<path id="Vector" d="M34.68 126.34C166.01 152.87 269.06 224.73 343.84 341.92" stroke="#FFFFFF" stroke-opacity="1.000000" stroke-width="1.320000"/>
			<path id="Vector" d="M82.92 -0.68C42.79 7.53 27.95 24.66 38.4 50.7C54.09 89.76 111.9 163.64 34.68 176.45M34.68 264.14C65.94 310.73 99.06 322.37 134.05 299.08C186.52 264.14 204.32 256.88 226.19 264.14C240.77 268.97 254.03 291.73 265.97 332.4" stroke="#FFFFFF" stroke-opacity="1.000000" stroke-width="1.320000"/>
			<path id="Vector" d="M358.79 205.35L45.07 205.35L45.07 267.83L358.79 267.83L358.79 205.35Z" fill="#F2EBF9" fill-opacity="1.000000" fill-rule="nonzero"/>
			<path id="Vector" d="M17.79 205.02L400.59 205.02" stroke="#000000" stroke-opacity="1.000000" stroke-width="1.294000" stroke-linejoin="round" stroke-linecap="round"/>
		</g>
		<mask id="mask18006_4908" mask-type="alpha" maskUnits="userSpaceOnUse" x="96.200195" y="102.497070" width="32.458984" height="40.980957">
			<path id="Vector" d="M96.2 110.38L113.92 102.49L128.65 135.59L110.93 143.47L96.2 110.38Z" fill="#FFFFFF" fill-opacity="1.000000" fill-rule="nonzero"/>
		</mask>
		<g mask="url(#mask18006_4908)">
			<path id="Vector" d="M96.2 110.38L113.92 102.49L128.65 135.59L110.93 143.47L96.2 110.38Z" fill="#FFFFFF" fill-opacity="1.000000" fill-rule="nonzero"/>
			<path id="Vector" d="M113.92 102.49L128.65 135.59L110.93 143.47L96.2 110.38L113.92 102.49Z" stroke="#000000" stroke-opacity="1.000000" stroke-width="1.384000" stroke-linejoin="round"/>
			<path id="Vector" d="M121.29 116.03C132.35 111.11 137.61 98.82 133.05 88.58C128.49 78.34 115.83 74.03 104.78 78.95C93.73 83.87 88.46 96.16 93.02 106.4C97.58 116.64 110.24 120.95 121.29 116.03Z" fill="#000000" fill-opacity="1.000000" fill-rule="nonzero"/>
		</g>
		<path id="Vector" d="M216.98 175.79L217.42 200.79L260.41 200.05L259.96 175.04L216.98 175.79Z" fill="#FFFFFF" fill-opacity="1.000000" fill-rule="nonzero"/>
		<path id="Vector" d="M244.43 186.61L257.13 186.88L257.13 188.31L253.86 188.3C252.95 188.3 252.05 188.48 251.2 188.83C250.36 189.18 249.6 189.69 248.95 190.34C248.31 190.98 247.79 191.75 247.44 192.59C247.1 193.43 246.92 194.34 246.92 195.25L246.92 195.27C246.92 197.11 247.66 198.88 248.97 200.19C250.28 201.5 252.05 202.23 253.9 202.23L258.71 202.23C265.21 202.23 270.48 196.96 270.48 190.46L270.48 186.49C270.48 177.79 263.42 170.74 254.72 170.74L254.72 170.74L209.56 170.73L244.43 186.61Z" fill="#FFFFFF" fill-opacity="1.000000" fill-rule="evenodd"/>
		<path id="Vector" d="M244.43 186.61L257.13 186.88L257.13 188.31L253.86 188.3C252.95 188.3 252.05 188.48 251.2 188.83C250.36 189.18 249.6 189.69 248.95 190.34C248.31 190.98 247.79 191.75 247.44 192.59C247.1 193.43 246.92 194.34 246.92 195.25L246.92 195.27C246.92 197.11 247.66 198.88 248.97 200.19C250.28 201.5 252.05 202.23 253.9 202.23L258.71 202.23C265.21 202.23 270.48 196.96 270.48 190.46L270.48 186.49C270.48 177.79 263.42 170.74 254.72 170.74L254.72 170.74L209.56 170.73" stroke="#000000" stroke-opacity="1.000000" stroke-width="1.384000" stroke-linejoin="round" stroke-linecap="round"/>
		<path id="Vector" d="M244.43 186.61L257.13 186.88L257.13 188.31L253.86 188.3C252.95 188.3 252.05 188.48 251.2 188.83C250.36 189.18 249.6 189.69 248.95 190.34C248.31 190.98 247.79 191.75 247.44 192.59C247.1 193.43 246.92 194.34 246.92 195.25L246.92 195.27C246.92 197.11 247.66 198.88 248.97 200.19C250.28 201.5 252.05 202.23 253.9 202.23L258.71 202.23C265.21 202.23 270.48 196.96 270.48 190.46L270.48 186.49C270.48 177.79 263.42 170.74 254.72 170.74L254.72 170.74L209.56 170.73L244.43 186.61Z" fill="#FFFFFF" fill-opacity="1.000000" fill-rule="evenodd"/>
		<path id="Vector" d="M244.43 186.61L257.13 186.88L257.13 188.31L253.86 188.3C252.95 188.3 252.05 188.48 251.2 188.83C250.36 189.18 249.6 189.69 248.95 190.34C248.31 190.98 247.79 191.75 247.44 192.59C247.1 193.43 246.92 194.34 246.92 195.25L246.92 195.27C246.92 197.11 247.66 198.88 248.97 200.19C250.28 201.5 252.05 202.23 253.9 202.23L258.71 202.23C265.21 202.23 270.48 196.96 270.48 190.46L270.48 186.49C270.48 177.79 263.42 170.74 254.72 170.74L254.72 170.74L209.56 170.73" stroke="#000000" stroke-opacity="1.000000" stroke-width="1.384000" stroke-linejoin="round" stroke-linecap="round"/>
		<path id="Vector" d="M211.69 207.18L246.93 207.18C248.74 207.18 250.48 206.47 251.78 205.2C253.07 203.93 253.81 202.21 253.84 200.39C253.87 198.62 253.2 196.91 251.97 195.64C250.74 194.37 249.05 193.63 247.28 193.6L247.16 193.6L230.69 193.6L211.69 207.18Z" fill="#FFFFFF" fill-opacity="1.000000" fill-rule="evenodd"/>
		<path id="Vector" d="M211.69 207.18L246.93 207.18C248.74 207.18 250.48 206.47 251.78 205.2C253.07 203.93 253.81 202.21 253.84 200.39C253.87 198.62 253.2 196.91 251.97 195.64C250.74 194.37 249.05 193.63 247.28 193.6L247.16 193.6L230.69 193.6" stroke="#000000" stroke-opacity="1.000000" stroke-width="1.320000" stroke-linejoin="round" stroke-linecap="round"/>
		<path id="Vector" d="M111.64 127.63C116.57 125.26 122.12 124.5 127.51 125.46C132.9 126.42 137.85 129.05 141.65 132.98L172.82 165.13L221.21 164.29L222 208.92L148.88 210.18C142.09 210.3 135.42 208.37 129.74 204.65C124.05 200.93 119.62 195.59 117.01 189.32L101.94 153.12C97.88 143.39 102.15 132.2 111.64 127.63Z" fill="#EAEBED" fill-opacity="1.000000" fill-rule="evenodd"/>
		<path id="Vector" d="M127.51 125.46C132.9 126.42 137.85 129.05 141.65 132.98L172.82 165.13L221.21 164.29L222 208.92L148.88 210.18C142.09 210.3 135.42 208.37 129.74 204.65C124.05 200.93 119.62 195.59 117.01 189.32L101.94 153.12C97.88 143.39 102.15 132.2 111.64 127.63C116.57 125.26 122.12 124.5 127.51 125.46Z" stroke="#000000" stroke-opacity="1.000000" stroke-width="1.320000" stroke-linejoin="round"/>
		<path id="Vector" d="M180.3 165.05L158.03 166.01L143.88 145.24" stroke="#000000" stroke-opacity="1.000000" stroke-width="1.320000" stroke-linejoin="round" stroke-linecap="round"/>
		<path id="Vector" d="M115.14 126.33C120.22 125.2 125.53 125.69 130.32 127.75C135.1 129.81 139.12 133.32 141.79 137.79L143.56 140.74L147.53 141.39C147.64 144.12 148.33 146.78 149.56 149.22C150.79 151.65 152.53 153.78 154.67 155.48L167.34 165.57" stroke="#000000" stroke-opacity="1.000000" stroke-width="1.320000" stroke-linejoin="round" stroke-linecap="round"/>
		<path id="Vector" d="M207.4 160.14L222.16 161.45L223.05 211.57L206.08 213.17L207.4 160.14Z" fill="#EAEBED" fill-opacity="1.000000" fill-rule="evenodd"/>
		<path id="Vector" d="M222.16 161.45L223.05 211.57L206.08 213.17L207.4 160.14L222.16 161.45Z" stroke="#000000" stroke-opacity="1.000000" stroke-width="1.320000" stroke-linejoin="round"/>
		<path id="Vector" d="M223.52 170.86L224.97 206.84L222.97 206.88L222.34 170.88L223.52 170.86ZM89.9 72.7C98.99 68.65 109.64 72.75 113.69 81.84C113.79 82.06 113.88 82.28 113.97 82.51L115.91 87.38C119.61 96.68 115.31 107.25 106.17 111.31C97.14 115.34 86.55 111.27 82.52 102.23L80.4 97.46C76.19 88 80.44 76.91 89.9 72.7Z" fill="#000000" fill-opacity="1.000000" fill-rule="evenodd"/>
		<path id="Vector" d="M115.68 83.88L120.29 94.22C123.78 102.05 120.26 111.23 112.43 114.71C104.6 118.2 95.42 114.67 91.93 106.84L87.33 96.5C83.84 88.67 87.36 79.5 95.19 76.01C103.02 72.53 112.2 76.05 115.68 83.88Z" fill="#FFFFFF" fill-opacity="1.000000" fill-rule="evenodd"/>
		<path id="Vector" d="M120.29 94.22C123.78 102.05 120.26 111.23 112.43 114.71C104.6 118.2 95.42 114.67 91.93 106.84L87.33 96.5C83.84 88.67 87.36 79.5 95.19 76.01C103.02 72.53 112.2 76.05 115.68 83.88L120.29 94.22Z" stroke="#000000" stroke-opacity="1.000000" stroke-width="1.412000" stroke-linejoin="round"/>
		<path id="Vector" d="M116.75 89.6L119.54 91.06L121.05 92.55L119.8 96.46L116.76 93.04L116.75 89.6Z" fill="#FFFFFF" fill-opacity="1.000000" fill-rule="evenodd"/>
		<path id="Vector" d="M117.07 104.9C115.79 105.47 114.34 105.51 113.03 105C111.72 104.5 110.67 103.5 110.1 102.22" stroke="#000000" stroke-opacity="1.000000" stroke-width="1.412000" stroke-linejoin="round" stroke-linecap="round"/>
		<path id="Vector" d="M87.91 77.61C83.02 77.18 80.64 79.84 80.77 85.56C80.86 90.08 82.71 98.12 92.05 107.24C92.43 107.61 91.8 100.09 91.96 99.45C93.22 94.63 93.5 89.73 92.8 84.74C92.01 79.09 90.38 76.72 87.91 77.61Z" fill="#000000" fill-opacity="1.000000" fill-rule="evenodd"/>
		<path id="Vector" d="M82.41 77.3C80 77.05 74.14 78.43 74.33 87C74.43 91.53 77.68 102.45 87.61 108.81C87.99 109.05 85.36 101.54 85.53 100.9C86.79 96.08 87.07 91.18 86.37 86.19C85.18 77.72 84.83 77.56 82.41 77.3Z" fill="#000000" fill-opacity="1.000000" fill-rule="evenodd"/>
		<path id="Vector" d="M91.74 98.45L89.98 98.93C89.42 99.08 88.92 99.35 88.49 99.73C88.06 100.11 87.72 100.58 87.51 101.11C87.29 101.64 87.2 102.21 87.24 102.78C87.27 103.35 87.44 103.9 87.73 104.39C88.44 105.63 89.51 106.62 90.8 107.24C92.08 107.85 93.52 108.07 94.93 107.85L95.86 107.71L91.74 98.45Z" fill="#FFFFFF" fill-opacity="1.000000" fill-rule="evenodd"/>
		<path id="Vector" d="M91.74 98.45L89.98 98.93C89.42 99.08 88.92 99.35 88.49 99.73C88.06 100.11 87.72 100.58 87.51 101.11C87.29 101.64 87.2 102.21 87.24 102.78C87.27 103.35 87.44 103.9 87.73 104.39C88.44 105.63 89.51 106.62 90.8 107.24C92.08 107.85 93.52 108.07 94.93 107.85L95.86 107.71M91.04 102.09L92.33 104.98M91.85 103.91L90.02 103.42" stroke="#000000" stroke-opacity="1.000000" stroke-width="1.412000" stroke-linejoin="round" stroke-linecap="round"/>
		<path id="Vector" d="M118.24 89.81L123.14 94.24L120.46 97.1L118.24 89.81Z" fill="#FFFFFF" fill-opacity="1.000000" fill-rule="evenodd"/>
		<path id="Vector" d="M118.24 89.81L123.14 94.24L120.46 97.1" stroke="#000000" stroke-opacity="1.000000" stroke-width="1.412000" stroke-linejoin="round" stroke-linecap="round"/>
		<path id="Vector" d="M114.03 90.87C113.64 89.98 112.07 89.82 110.52 90.5C108.98 91.19 108.05 92.47 108.44 93.35C108.84 94.24 110.41 94.4 111.95 93.72C113.5 93.03 114.43 91.75 114.03 90.87Z" stroke="#000000" stroke-opacity="1.000000" stroke-width="0.941000" stroke-linejoin="round"/>
		<path id="Vector" d="M111.95 93.72C112.88 93.3 113.31 92.25 112.91 91.36C112.52 90.48 111.45 90.09 110.52 90.5C109.6 90.91 109.17 91.97 109.56 92.86C109.96 93.74 111.03 94.13 111.95 93.72Z" fill="#000000" fill-opacity="1.000000" fill-rule="nonzero"/>
		<path id="Vector" d="M88.17 76.7C98.03 69.21 106.54 66 113.71 67.06C124.47 68.65 123.59 86.62 102.97 90.06C89.23 92.34 84.29 87.89 88.17 76.7Z" fill="#000000" fill-opacity="1.000000" fill-rule="evenodd"/>
		<path id="Vector" d="M80.73 82.46C79.92 77.7 91.28 62.6 100.29 62.56C106.3 62.54 107.25 68.15 103.16 79.42C88.74 84.61 81.27 85.62 80.73 82.45L80.73 82.46ZM58.55 83.27L60.94 82.25C65.87 80.16 71.57 82.46 73.66 87.39L123.4 204.57L99.72 205.09L53.41 95.99C51.31 91.06 53.62 85.36 58.55 83.27L58.55 83.27Z" fill="#000000" fill-opacity="1.000000" fill-rule="evenodd"/>
		<path id="Vector" d="M291.19 140.31L291.19 204.65M334.53 140.31L334.53 204.65M286.51 143.95L338.85 143.95" stroke="#436FFF" stroke-opacity="1.000000" stroke-width="1.384000" stroke-linejoin="round" stroke-linecap="round"/>
		<path id="Vector" d="M298.97 143.92L298.97 177.81" stroke="#436FFF" stroke-opacity="1.000000" stroke-width="0.970000" stroke-linejoin="round" stroke-linecap="round"/>
		<path id="Vector" d="M298.97 185.96C299.52 185.96 300.07 185.85 300.58 185.64C301.09 185.43 301.55 185.12 301.94 184.73C302.34 184.34 302.64 183.87 302.86 183.36C303.07 182.85 303.18 182.31 303.18 181.75C303.18 181.2 303.07 180.65 302.85 180.14C302.64 179.63 302.33 179.17 301.94 178.78C301.55 178.39 301.09 178.08 300.58 177.87C300.07 177.66 299.52 177.55 298.97 177.55C297.85 177.55 296.79 177.99 296 178.78C295.21 179.57 294.76 180.64 294.77 181.75C294.77 182.87 295.21 183.94 296 184.73C296.79 185.52 297.86 185.96 298.97 185.96Z" fill="#436FFF" fill-opacity="1.000000" fill-rule="nonzero"/>
		<path id="Vector" d="M308.03 143.92L308.03 177.81" stroke="#436FFF" stroke-opacity="1.000000" stroke-width="0.970000" stroke-linejoin="round" stroke-linecap="round"/>
		<path id="Vector" d="M308.03 185.96C308.58 185.96 309.13 185.85 309.64 185.64C310.15 185.43 310.61 185.12 311 184.73C311.39 184.34 311.7 183.87 311.91 183.36C312.12 182.85 312.23 182.31 312.23 181.75C312.23 181.2 312.12 180.65 311.91 180.14C311.7 179.63 311.39 179.17 311 178.78C310.61 178.39 310.15 178.08 309.63 177.87C309.12 177.66 308.58 177.55 308.03 177.55C306.91 177.55 305.84 177.99 305.05 178.78C304.26 179.57 303.82 180.64 303.82 181.75C303.82 182.87 304.26 183.94 305.05 184.73C305.84 185.52 306.91 185.96 308.03 185.96Z" fill="#436FFF" fill-opacity="1.000000" fill-rule="nonzero"/>
		<path id="Vector" d="M317.08 143.92L317.08 177.81" stroke="#436FFF" stroke-opacity="1.000000" stroke-width="0.970000" stroke-linejoin="round" stroke-linecap="round"/>
		<path id="Vector" d="M317.08 185.96C317.63 185.96 318.18 185.85 318.69 185.64C319.2 185.43 319.66 185.12 320.05 184.73C320.44 184.34 320.75 183.87 320.97 183.36C321.18 182.85 321.29 182.31 321.29 181.75C321.29 181.2 321.18 180.65 320.97 180.14C320.75 179.63 320.44 179.17 320.05 178.78C319.66 178.39 319.2 178.08 318.69 177.87C318.18 177.66 317.63 177.55 317.08 177.55C315.97 177.55 314.9 177.99 314.11 178.78C313.32 179.57 312.88 180.64 312.88 181.75C312.88 182.87 313.32 183.94 314.11 184.73C314.9 185.52 315.97 185.96 317.08 185.96Z" fill="#436FFF" fill-opacity="1.000000" fill-rule="nonzero"/>
		<path id="Vector" d="M326.14 143.92L326.14 177.81" stroke="#436FFF" stroke-opacity="1.000000" stroke-width="0.970000" stroke-linejoin="round" stroke-linecap="round"/>
		<path id="Vector" d="M326.14 185.96C327.25 185.96 328.32 185.52 329.11 184.73C329.9 183.94 330.34 182.87 330.34 181.75C330.34 180.64 329.9 179.57 329.11 178.78C328.32 177.99 327.25 177.55 326.14 177.55C325.02 177.55 323.95 177.99 323.16 178.78C322.37 179.57 321.93 180.64 321.93 181.75C321.93 182.87 322.37 183.94 323.16 184.73C323.95 185.52 325.02 185.96 326.14 185.96Z" fill="#436FFF" fill-opacity="1.000000" fill-rule="nonzero"/>
	</g>
</svg>
