<svg width="310.735352" height="252.033447" viewBox="0 0 310.735 252.033" fill="none" xmlns="http://www.w3.org/2000/svg" xmlns:xlink="http://www.w3.org/1999/xlink">
	<desc>
			Created with Pixso.
	</desc>
	<defs/>
	<mask id="mask18006_3364" mask-type="alpha" maskUnits="userSpaceOnUse" x="0.000000" y="0.000000" width="310.735352" height="252.033447">
		<path id="Vector" d="M186.05 23.15C249.56 61.06 287.69 67.79 304.45 118.26C321.22 168.73 305.37 231.54 245.34 247.01C185.32 262.49 183.69 236.83 93.1 240.92C2.5 245 -29.69 113.22 31.23 53.09C92.14 -7.05 122.53 -14.75 186.05 23.15Z" fill="#FFFFFF" fill-opacity="1.000000" fill-rule="nonzero"/>
	</mask>
	<g mask="url(#mask18006_3364)">
		<path id="Vector" d="M136.11 210.23C182.89 210.23 220.82 172.31 220.82 125.53C220.82 78.74 182.89 40.82 136.11 40.82C89.33 40.82 51.4 78.74 51.4 125.53C51.4 172.31 89.33 210.23 136.11 210.23Z" fill="#000000" fill-opacity="1.000000" fill-rule="nonzero"/>
		<path id="Vector" d="M82.17 130.35C82.44 130.35 82.69 130.25 82.88 130.06C83.07 129.87 83.17 129.62 83.17 129.35C83.17 129.09 83.07 128.84 82.88 128.65C82.69 128.46 82.44 128.35 82.17 128.35C81.91 128.35 81.65 128.46 81.46 128.65C81.28 128.84 81.17 129.09 81.17 129.35C81.17 129.62 81.28 129.87 81.46 130.06C81.65 130.25 81.91 130.35 82.17 130.35ZM83.27 152.13C83.54 152.13 83.79 152.03 83.98 151.84C84.17 151.65 84.27 151.4 84.27 151.13C84.27 150.87 84.17 150.62 83.98 150.43C83.79 150.24 83.54 150.13 83.27 150.13C83.01 150.13 82.75 150.24 82.56 150.43C82.38 150.62 82.27 150.87 82.27 151.13C82.27 151.4 82.38 151.65 82.56 151.84C82.75 152.03 83.01 152.13 83.27 152.13ZM121.11 125.4C121.4 125.4 121.68 125.28 121.89 125.07C122.1 124.87 122.21 124.59 122.21 124.29C122.21 124 122.1 123.72 121.89 123.52C121.68 123.31 121.4 123.19 121.11 123.19C120.82 123.2 120.54 123.31 120.33 123.52C120.13 123.72 120.01 124 120.01 124.3C120.01 124.59 120.13 124.87 120.33 125.07C120.54 125.28 120.82 125.4 121.11 125.4ZM202.73 134.75C203 134.75 203.25 134.65 203.44 134.46C203.63 134.28 203.73 134.02 203.73 133.75C203.73 133.49 203.63 133.24 203.44 133.05C203.25 132.86 203 132.75 202.73 132.75C202.47 132.75 202.21 132.86 202.02 133.05C201.84 133.24 201.73 133.49 201.73 133.75C201.73 134.02 201.84 134.28 202.02 134.46C202.21 134.65 202.47 134.75 202.73 134.75ZM197.01 142.24C197.28 142.24 197.53 142.13 197.72 141.94C197.91 141.75 198.01 141.5 198.01 141.24C198.01 140.97 197.91 140.72 197.72 140.53C197.53 140.34 197.28 140.24 197.01 140.24C196.75 140.24 196.49 140.34 196.3 140.53C196.12 140.72 196.01 140.97 196.01 141.24C196.01 141.5 196.12 141.75 196.3 141.94C196.49 142.13 196.75 142.24 197.01 142.24ZM75.57 151.03C75.84 151.03 76.09 150.93 76.28 150.74C76.47 150.55 76.57 150.3 76.57 150.03C76.57 149.77 76.47 149.52 76.28 149.33C76.09 149.14 75.84 149.03 75.57 149.03C75.31 149.03 75.05 149.14 74.86 149.33C74.68 149.52 74.57 149.77 74.57 150.03C74.57 150.3 74.68 150.55 74.86 150.74C75.05 150.93 75.31 151.03 75.57 151.03ZM110.33 104.83C110.6 104.83 110.85 104.73 111.04 104.54C111.23 104.35 111.33 104.1 111.33 103.83C111.33 103.57 111.23 103.32 111.04 103.13C110.85 102.94 110.6 102.83 110.33 102.83C110.07 102.83 109.81 102.94 109.62 103.13C109.44 103.32 109.33 103.57 109.33 103.83C109.33 104.1 109.44 104.35 109.62 104.54C109.81 104.73 110.07 104.83 110.33 104.83ZM76.01 115.83C76.28 115.83 76.53 115.73 76.72 115.54C76.91 115.35 77.01 115.1 77.01 114.83C77.01 114.57 76.91 114.32 76.72 114.13C76.53 113.94 76.28 113.83 76.01 113.83C75.75 113.83 75.49 113.94 75.3 114.13C75.12 114.32 75.01 114.57 75.01 114.83C75.01 115.1 75.12 115.35 75.3 115.54C75.49 115.73 75.75 115.83 76.01 115.83ZM110.99 112.97C111.26 112.97 111.51 112.87 111.7 112.68C111.89 112.49 111.99 112.24 111.99 111.97C111.99 111.71 111.89 111.46 111.7 111.27C111.51 111.08 111.26 110.97 110.99 110.97C110.73 110.97 110.47 111.08 110.28 111.27C110.1 111.46 109.99 111.71 109.99 111.97C109.99 112.24 110.1 112.49 110.28 112.68C110.47 112.87 110.73 112.97 110.99 112.97ZM99.99 129.25C100.26 129.25 100.51 129.15 100.7 128.96C100.89 128.78 100.99 128.52 100.99 128.25C100.99 127.99 100.89 127.74 100.7 127.55C100.51 127.36 100.26 127.26 99.99 127.26C99.73 127.26 99.47 127.36 99.28 127.55C99.1 127.74 98.99 127.99 98.99 128.25C98.99 128.52 99.1 128.78 99.28 128.96C99.47 129.15 99.73 129.25 99.99 129.25ZM134.09 129.47C134.36 129.47 134.61 129.37 134.8 129.18C134.99 128.99 135.09 128.74 135.09 128.47C135.09 128.21 134.99 127.96 134.8 127.77C134.61 127.58 134.36 127.47 134.09 127.47C133.83 127.47 133.57 127.58 133.38 127.77C133.2 127.96 133.09 128.21 133.09 128.47C133.09 128.74 133.2 128.99 133.38 129.18C133.57 129.37 133.83 129.47 134.09 129.47ZM126.39 79.63C126.68 79.63 126.96 79.52 127.17 79.31C127.38 79.11 127.49 78.83 127.49 78.53C127.49 78.24 127.38 77.96 127.17 77.76C126.96 77.55 126.68 77.43 126.39 77.43C126.1 77.43 125.82 77.55 125.61 77.76C125.41 77.96 125.29 78.24 125.29 78.53C125.29 78.83 125.41 79.11 125.61 79.31C125.82 79.52 126.1 79.63 126.39 79.63ZM118.91 96.79C119.2 96.79 119.48 96.68 119.69 96.47C119.9 96.27 120.01 95.99 120.01 95.69C120.01 95.4 119.9 95.12 119.69 94.92C119.48 94.71 119.2 94.59 118.91 94.59C118.62 94.59 118.34 94.71 118.13 94.92C117.93 95.12 117.81 95.4 117.81 95.69C117.81 95.99 117.93 96.27 118.13 96.47C118.34 96.68 118.62 96.79 118.91 96.79ZM156.31 85.79C156.6 85.79 156.88 85.68 157.09 85.47C157.3 85.27 157.41 84.99 157.41 84.69C157.41 84.4 157.3 84.12 157.09 83.92C156.88 83.71 156.6 83.59 156.31 83.59C156.02 83.59 155.74 83.71 155.53 83.92C155.33 84.12 155.21 84.4 155.21 84.69C155.21 84.99 155.33 85.27 155.53 85.47C155.74 85.68 156.02 85.79 156.31 85.79ZM110.77 95.16C111.04 95.16 111.29 95.05 111.48 94.86C111.67 94.68 111.77 94.42 111.77 94.16C111.77 93.89 111.67 93.64 111.48 93.45C111.29 93.26 111.04 93.16 110.77 93.16C110.51 93.16 110.25 93.26 110.06 93.45C109.88 93.64 109.77 93.89 109.77 94.16C109.77 94.42 109.88 94.68 110.06 94.86C110.25 95.05 110.51 95.16 110.77 95.16ZM145.53 65.24C145.8 65.24 146.05 65.13 146.24 64.94C146.43 64.76 146.53 64.5 146.53 64.24C146.53 63.97 146.43 63.72 146.24 63.53C146.05 63.34 145.8 63.24 145.53 63.24C145.27 63.24 145.01 63.34 144.82 63.53C144.64 63.72 144.53 63.97 144.53 64.24C144.53 64.5 144.64 64.76 144.82 64.94C145.01 65.13 145.27 65.24 145.53 65.24ZM100.65 124.63C100.92 124.63 101.17 124.53 101.36 124.34C101.55 124.15 101.65 123.9 101.65 123.63C101.65 123.37 101.55 123.12 101.36 122.93C101.17 122.74 100.92 122.63 100.65 122.63C100.39 122.63 100.13 122.74 99.94 122.93C99.76 123.12 99.65 123.37 99.65 123.63C99.65 123.9 99.76 124.15 99.94 124.34C100.13 124.53 100.39 124.63 100.65 124.63ZM92.95 74.79C93.24 74.79 93.52 74.68 93.73 74.47C93.94 74.27 94.05 73.99 94.05 73.69C94.05 73.4 93.94 73.12 93.73 72.92C93.52 72.71 93.24 72.59 92.95 72.59C92.66 72.59 92.38 72.71 92.17 72.92C91.97 73.12 91.85 73.4 91.85 73.69C91.85 73.99 91.97 74.27 92.17 74.47C92.38 74.68 92.66 74.79 92.95 74.79ZM85.47 91.96C85.62 91.96 85.76 91.93 85.89 91.87C86.03 91.82 86.15 91.74 86.25 91.63C86.35 91.53 86.43 91.41 86.49 91.28C86.54 91.14 86.57 91 86.57 90.85C86.57 90.71 86.54 90.57 86.49 90.43C86.43 90.3 86.35 90.18 86.25 90.08C86.15 89.97 86.02 89.89 85.89 89.84C85.76 89.78 85.61 89.75 85.47 89.75C85.18 89.75 84.9 89.87 84.69 90.08C84.49 90.28 84.37 90.56 84.37 90.86C84.37 91.15 84.49 91.43 84.69 91.63C84.9 91.84 85.18 91.96 85.47 91.96ZM122.87 80.96C123.02 80.96 123.16 80.93 123.29 80.87C123.43 80.82 123.55 80.74 123.65 80.63C123.75 80.53 123.83 80.41 123.89 80.28C123.94 80.14 123.97 80 123.97 79.85C123.97 79.71 123.94 79.57 123.89 79.43C123.83 79.3 123.75 79.18 123.65 79.08C123.55 78.97 123.43 78.89 123.29 78.84C123.16 78.78 123.01 78.75 122.87 78.75C122.58 78.75 122.3 78.87 122.09 79.08C121.89 79.28 121.77 79.56 121.77 79.86C121.77 80.15 121.89 80.43 122.09 80.63C122.3 80.84 122.58 80.96 122.87 80.96ZM68.09 103.51C68.36 103.51 68.61 103.41 68.8 103.22C68.99 103.03 69.09 102.78 69.09 102.51C69.09 102.25 68.99 102 68.8 101.81C68.61 101.62 68.36 101.51 68.09 101.51C67.83 101.51 67.57 101.62 67.38 101.81C67.2 102 67.09 102.25 67.09 102.51C67.09 102.78 67.2 103.03 67.38 103.22C67.57 103.41 67.83 103.51 68.09 103.51ZM112.09 60.39C112.36 60.39 112.61 60.29 112.8 60.1C112.99 59.91 113.09 59.66 113.09 59.39C113.09 59.13 112.99 58.87 112.8 58.69C112.61 58.5 112.36 58.39 112.09 58.39C111.83 58.39 111.57 58.5 111.38 58.69C111.2 58.87 111.09 59.13 111.09 59.39C111.09 59.66 111.2 59.91 111.38 60.1C111.57 60.29 111.83 60.39 112.09 60.39ZM111.21 76.24C111.48 76.24 111.73 76.13 111.92 75.94C112.11 75.76 112.21 75.5 112.21 75.24C112.21 74.97 112.11 74.72 111.92 74.53C111.73 74.34 111.48 74.24 111.21 74.24C110.95 74.24 110.69 74.34 110.5 74.53C110.32 74.72 110.21 74.97 110.21 75.24C110.21 75.5 110.32 75.76 110.5 75.94C110.69 76.13 110.95 76.24 111.21 76.24ZM154.99 77.78C155.26 77.78 155.51 77.67 155.7 77.48C155.89 77.3 155.99 77.04 155.99 76.78C155.99 76.51 155.89 76.26 155.7 76.07C155.51 75.88 155.26 75.78 154.99 75.78C154.73 75.78 154.47 75.88 154.28 76.07C154.1 76.26 153.99 76.51 153.99 76.78C153.99 77.04 154.1 77.3 154.28 77.48C154.47 77.67 154.73 77.78 154.99 77.78ZM135.19 89.66C135.46 89.66 135.71 89.55 135.9 89.36C136.09 89.18 136.19 88.92 136.19 88.66C136.19 88.39 136.09 88.14 135.9 87.95C135.71 87.76 135.46 87.66 135.19 87.66C134.93 87.66 134.67 87.76 134.48 87.95C134.3 88.14 134.19 88.39 134.19 88.66C134.19 88.92 134.3 89.18 134.48 89.36C134.67 89.55 134.93 89.66 135.19 89.66ZM169.29 89.87C169.56 89.87 169.81 89.77 170 89.58C170.19 89.39 170.29 89.14 170.29 88.87C170.29 88.61 170.19 88.35 170 88.17C169.81 87.98 169.56 87.87 169.29 87.87C169.03 87.87 168.77 87.98 168.58 88.17C168.4 88.35 168.29 88.61 168.29 88.87C168.29 89.14 168.4 89.39 168.58 89.58C168.77 89.77 169.03 89.87 169.29 89.87Z" fill="#FFFFFF" fill-opacity="1.000000" fill-rule="nonzero"/>
		<path id="Vector" d="M206.73 189.15L197.36 198.52L219.49 220.65L228.86 211.28L206.73 189.15Z" fill="#541F9D" fill-opacity="1.000000" fill-rule="evenodd"/>
		<path id="Vector" d="M183.88 196.77L205.27 175.39L214.93 185.05C216.48 186.6 217.36 188.71 217.36 190.91C217.36 193.11 216.48 195.21 214.93 196.77L205.27 206.43C203.71 207.99 201.6 208.86 199.41 208.86C197.21 208.86 195.1 207.99 193.55 206.43L183.88 196.77Z" fill="#BD93F7" fill-opacity="1.000000" fill-rule="evenodd"/>
		<path id="Vector" d="M222.9 206.43L214.93 214.41C208.64 220.7 208.64 230.9 214.93 237.19L248.13 270.38C254.42 276.67 264.62 276.67 270.91 270.38L278.88 262.41C285.17 256.12 285.17 245.92 278.88 239.63L245.68 206.43C239.39 200.14 229.19 200.14 222.9 206.43Z" fill="#BD93F7" fill-opacity="1.000000" fill-rule="evenodd"/>
		<path id="Vector" d="M194.57 66.28C161.49 33.2 107.86 33.2 74.78 66.28C41.7 99.36 41.7 153 74.78 186.08C107.86 219.16 161.49 219.16 194.57 186.08C227.65 153 227.65 99.36 194.57 66.28Z" stroke="#9854F6" stroke-opacity="1.000000" stroke-width="20.711000"/>
		<mask id="mask18006_3374" mask-type="alpha" maskUnits="userSpaceOnUse" x="60.059875" y="32.119629" width="192.663391" height="168.519989">
			<path id="Vector" d="M134.64 200.64C175.83 200.64 209.22 167.25 209.22 126.06C209.22 112.2 258.7 68.22 252.12 57.1C239.13 35.17 167.1 32.11 139.77 32.11C98.58 32.11 60.05 84.87 60.05 126.06C60.05 167.25 93.45 200.64 134.64 200.64Z" fill="#FFFFFF" fill-opacity="1.000000" fill-rule="nonzero"/>
		</mask>
		<g mask="url(#mask18006_3374)">
			<path id="Vector" d="M231.17 73.03C231.63 77.39 230.53 81.77 228.06 85.4L189.83 141.42L199.93 162.13C187.22 185.09 162.74 200.64 134.64 200.64C132.44 200.64 130.24 200.54 128.05 200.35L123.82 190.82L122.42 199.64C108.1 197.28 95.15 190.84 84.82 181.56L87.13 157.72C87.41 154.83 88.4 152.06 90.02 149.64C91.63 147.23 93.81 145.25 96.38 143.89L136.29 122.63L162.8 99.51L187.26 78.3L128.36 79.64L127.58 65.93L152.19 62.84L210.84 56.61C220.99 55.53 230.09 62.88 231.17 73.03Z" fill="#FFFFFF" fill-opacity="1.000000" fill-rule="evenodd"/>
			<path id="Vector" d="M127.63 129.09L119.2 109.24L137.33 101.55L145.75 121.4L127.63 129.09Z" fill="#FFFFFF" fill-opacity="1.000000" fill-rule="evenodd"/>
			<path id="Vector" d="M127.63 129.09L119.2 109.24L137.33 101.55L145.75 121.4" stroke="#000000" stroke-opacity="1.000000" stroke-width="1.320000" stroke-linejoin="round" stroke-linecap="round"/>
			<mask id="mask18006_3381" mask-type="alpha" maskUnits="userSpaceOnUse" x="119.207886" y="101.558594" width="26.066833" height="30.555573">
				<path id="Vector" d="M119.2 109.24L137.32 101.55L144.48 118.42C146.61 123.42 144.28 129.2 139.27 131.33C134.27 133.45 128.49 131.11 126.36 126.11L119.2 109.24Z" fill="#FFFFFF" fill-opacity="1.000000" fill-rule="nonzero"/>
			</mask>
			<g mask="url(#mask18006_3381)">
				<path id="Vector" d="M139.74 112.45C151.05 107.65 156.61 95.3 152.18 84.85C147.74 74.4 134.98 69.82 123.68 74.62C112.38 79.42 106.81 91.77 111.24 102.22C115.68 112.67 128.44 117.25 139.74 112.45Z" fill="#000000" fill-opacity="1.000000" fill-rule="nonzero"/>
			</g>
			<path id="Vector" d="M114.44 65.6L109.36 67.76C101.66 71.03 98.06 79.92 101.34 87.63L106.07 98.78C109.34 106.48 118.23 110.08 125.93 106.81L131.02 104.65C138.72 101.38 142.31 92.49 139.04 84.79L134.3 73.64C131.03 65.93 122.14 62.34 114.44 65.6Z" fill="#000000" fill-opacity="1.000000" fill-rule="nonzero"/>
			<path id="Vector" d="M136.58 84.32L138.31 83.26C138.78 82.96 139.32 82.78 139.88 82.73C140.43 82.67 140.99 82.75 141.52 82.95C142.04 83.14 142.51 83.46 142.89 83.87C143.27 84.27 143.56 84.76 143.72 85.3L143.77 85.46C144.19 86.84 144.18 88.31 143.75 89.69C143.32 91.07 142.48 92.28 141.35 93.18L140.6 93.77L136.58 84.32Z" fill="#FFFFFF" fill-opacity="1.000000" fill-rule="evenodd"/>
			<path id="Vector" d="M138.31 83.26C138.78 82.96 139.32 82.78 139.88 82.73C140.43 82.67 140.99 82.75 141.52 82.95C142.04 83.14 142.51 83.46 142.89 83.87C143.27 84.27 143.56 84.76 143.72 85.3L143.77 85.46C144.19 86.84 144.18 88.31 143.75 89.69C143.32 91.07 142.48 92.28 141.35 93.18L140.6 93.77L136.58 84.32L138.31 83.26Z" stroke="#000000" stroke-opacity="1.000000" stroke-width="1.320000" stroke-linejoin="round"/>
			<path id="Vector" d="M139.77 86.32L141.02 89.27M140.55 88.17L141.46 86.48" stroke="#000000" stroke-opacity="1.000000" stroke-width="1.320000" stroke-linejoin="round" stroke-linecap="round"/>
			<path id="Vector" d="M107.57 96.64L105.6 97.14C105.06 97.28 104.56 97.54 104.13 97.9C103.71 98.26 103.37 98.72 103.15 99.23C102.93 99.74 102.83 100.3 102.85 100.86C102.88 101.42 103.04 101.96 103.31 102.45L103.39 102.59C104.09 103.86 105.16 104.88 106.45 105.53C107.74 106.17 109.19 106.41 110.63 106.22L111.58 106.09L107.57 96.64Z" fill="#FFFFFF" fill-opacity="1.000000" fill-rule="evenodd"/>
			<path id="Vector" d="M105.6 97.14C105.06 97.28 104.56 97.54 104.13 97.9C103.71 98.26 103.37 98.72 103.15 99.23C102.93 99.74 102.83 100.3 102.85 100.86C102.88 101.42 103.04 101.96 103.31 102.45L103.39 102.59C104.09 103.86 105.16 104.88 106.45 105.53C107.74 106.17 109.19 106.41 110.63 106.22L111.58 106.09L107.57 96.64L105.6 97.14Z" stroke="#000000" stroke-opacity="1.000000" stroke-width="1.320000" stroke-linejoin="round"/>
			<path id="Vector" d="M106.8 100.32L108.04 103.26M107.58 102.17L105.73 101.65" stroke="#000000" stroke-opacity="1.000000" stroke-width="1.320000" stroke-linejoin="round" stroke-linecap="round"/>
			<path id="Vector" d="M134.67 79.84L139.12 90.3C142.52 98.31 138.78 107.57 130.77 110.97C122.76 114.37 113.51 110.63 110.11 102.61L105.66 92.15C102.26 84.13 106 74.88 114.01 71.48C122.02 68.08 131.27 71.82 134.67 79.84Z" fill="#FFFFFF" fill-opacity="1.000000" fill-rule="evenodd"/>
			<path id="Vector" d="M139.12 90.3C142.52 98.31 138.78 107.57 130.77 110.97C122.76 114.37 113.51 110.63 110.11 102.61L105.66 92.15C102.26 84.13 106 74.88 114.01 71.48C122.02 68.08 131.27 71.82 134.67 79.84L139.12 90.3Z" stroke="#000000" stroke-opacity="1.000000" stroke-width="1.320000" stroke-linejoin="round"/>
			<path id="Vector" d="M127.81 103.02C129.11 102.47 130.14 101.42 130.68 100.1C131.21 98.79 131.2 97.31 130.65 96.01M122.48 93.77L123.46 97.74L125.65 97.22" stroke="#000000" stroke-opacity="1.000000" stroke-width="1.320000" stroke-linejoin="round" stroke-linecap="round"/>
			<path id="Vector" d="M116.88 92.91C116.49 92 114.9 91.81 113.33 92.48C111.75 93.15 110.78 94.43 111.16 95.33C111.55 96.24 113.14 96.43 114.72 95.76C116.29 95.09 117.26 93.81 116.88 92.91Z" stroke="#000000" stroke-opacity="1.000000" stroke-width="0.730000" stroke-linejoin="round"/>
			<path id="Vector" d="M114.72 95.76C115.66 95.36 116.12 94.3 115.74 93.39C115.35 92.49 114.27 92.08 113.33 92.48C112.38 92.88 111.92 93.94 112.31 94.85C112.69 95.75 113.77 96.16 114.72 95.76Z" fill="#000000" fill-opacity="1.000000" fill-rule="nonzero"/>
			<path id="Vector" d="M132.71 86.19C132.32 85.29 130.73 85.1 129.15 85.76C127.57 86.43 126.61 87.71 126.99 88.62C127.37 89.52 128.97 89.71 130.54 89.04C132.12 88.37 133.09 87.1 132.71 86.19Z" stroke="#000000" stroke-opacity="1.000000" stroke-width="0.730000" stroke-linejoin="round"/>
			<path id="Vector" d="M130.54 89.04C131.49 88.64 131.95 87.58 131.56 86.68C131.18 85.77 130.1 85.36 129.15 85.76C128.21 86.17 127.75 87.23 128.13 88.13C128.52 89.03 129.6 89.44 130.54 89.04Z" fill="#000000" fill-opacity="1.000000" fill-rule="nonzero"/>
			<path id="Vector" d="M118.38 60.52C120.95 60.3 122.46 61.59 122.91 64.4C126 63.63 128.89 63.51 131.59 64.02C137.63 65.18 139.9 71.71 136.85 77.52C137.12 78.96 137.41 80.71 137.74 82.77C136.89 83.66 136.29 84.05 135.94 83.93C134.81 83.53 133.75 82.98 132.77 82.29C130.05 84.4 126.25 86.04 121.24 86.72C113.99 87.7 109.26 86.77 107.07 83.92C107.58 88.47 107.44 92.4 106.66 95.7C100.43 92.18 97.13 88.23 96.76 83.86C96.44 80 98.01 77.82 101.47 77.32C102.4 71.8 111.29 61.14 118.38 60.52Z" fill="#000000" fill-opacity="1.000000" fill-rule="evenodd"/>
			<path id="Vector" d="M106.66 95.7C101.02 92.37 97.13 88.23 96.76 83.86C96.44 80 98.01 77.82 101.47 77.32C102.4 71.8 111.29 61.14 118.38 60.52C120.95 60.3 122.46 61.59 122.91 64.4C126 63.63 128.89 63.51 131.59 64.02C136.9 65.03 138.3 70.77 136.74 75.95C137.12 78.03 137.37 80.63 137.74 82.77" stroke="#FFFFFF" stroke-opacity="1.000000" stroke-width="0.880000" stroke-linejoin="round" stroke-linecap="round"/>
			<path id="Vector" d="M124.99 197.95L121.22 190.29" stroke="#000000" stroke-opacity="1.000000" stroke-width="1.320000" stroke-linejoin="round" stroke-linecap="round"/>
			<path id="Vector" d="M117.81 138.21L145.28 141.63L155.21 116.38" stroke="#000000" stroke-opacity="1.000000" stroke-width="1.320000" stroke-linejoin="round"/>
			<path id="Vector" d="M147.13 48.14L149.36 93.67L166.06 91.94L151.61 108.87L211.64 236.33L230.74 200.17L196.57 138.86L231.73 84.35C239.63 72.1 236.1 55.76 223.86 47.85C219.04 44.73 213.33 43.28 207.61 43.7L147.13 48.14Z" fill="#EAEBED" fill-opacity="1.000000" fill-rule="evenodd"/>
			<path id="Vector" d="M149.36 93.67L166.06 91.94L151.61 108.87L211.64 236.33L230.74 200.17L196.57 138.86L231.73 84.35C239.63 72.1 236.1 55.76 223.86 47.85C219.04 44.73 213.33 43.28 207.61 43.7L147.13 48.14L149.36 93.67Z" stroke="#000000" stroke-opacity="1.000000" stroke-width="1.320000" stroke-linejoin="round"/>
			<path id="Vector" d="M165.13 93.1L174.78 80.9" stroke="#000000" stroke-opacity="1.000000" stroke-width="1.320000" stroke-linejoin="round" stroke-linecap="round"/>
			<path id="Vector" d="M162.92 96.01L168.41 128.47L176.43 126.88C177.38 126.69 178.36 126.7 179.31 126.91C180.26 127.11 181.15 127.51 181.94 128.08C182.72 128.65 183.38 129.38 183.87 130.21C184.36 131.05 184.68 131.98 184.79 132.94L191.75 190.29L162.92 96.01Z" fill="#EAEBED" fill-opacity="1.000000" fill-rule="evenodd"/>
			<path id="Vector" d="M162.92 96.01L168.41 128.47L176.43 126.88C177.38 126.69 178.36 126.7 179.31 126.91C180.26 127.11 181.15 127.51 181.94 128.08C182.72 128.65 183.38 129.38 183.87 130.21C184.36 131.05 184.68 131.98 184.79 132.94L191.75 190.29" stroke="#000000" stroke-opacity="1.000000" stroke-width="1.320000" stroke-linejoin="round"/>
			<path id="Vector" d="M116.56 132.88L170.17 254.97L150.28 264.11L123.1 208.54L119.21 225.64L81.3 212.28L87.02 157.99C87.33 155.01 88.37 152.15 90.04 149.66C91.7 147.16 93.95 145.11 96.59 143.69L116.56 132.88Z" fill="#EAEBED" fill-opacity="1.000000" fill-rule="evenodd"/>
			<path id="Vector" d="M170.17 254.97L150.28 264.11L123.1 208.54L119.21 225.64L81.3 212.28L87.02 157.99C87.33 155.01 88.37 152.15 90.04 149.66C91.7 147.16 93.95 145.11 96.59 143.69L116.56 132.88L170.17 254.97Z" stroke="#000000" stroke-opacity="1.000000" stroke-width="1.320000" stroke-linejoin="round"/>
			<path id="Vector" d="M197.45 140.42L193.64 133.76" stroke="#000000" stroke-opacity="1.000000" stroke-width="1.320000" stroke-linejoin="round" stroke-linecap="round"/>
			<path id="Vector" d="M103.33 139.49L122.87 162.1L117.96 173.67C117.5 174.75 117.34 175.95 117.49 177.12C117.65 178.29 118.12 179.4 118.85 180.33L157.41 229.23L103.33 139.49Z" fill="#EAEBED" fill-opacity="1.000000" fill-rule="evenodd"/>
			<path id="Vector" d="M103.33 139.49L122.87 162.1L117.96 173.67C117.5 174.75 117.34 175.95 117.49 177.12C117.65 178.29 118.12 179.4 118.85 180.33L157.41 229.23" stroke="#000000" stroke-opacity="1.000000" stroke-width="1.320000" stroke-linejoin="round"/>
		</g>
		<path id="Vector" d="M143.53 79.22L95.97 83.09C94.33 83.22 92.7 82.72 91.42 81.69C90.13 80.66 89.29 79.18 89.06 77.55C88.95 76.76 89 75.96 89.19 75.19C89.39 74.42 89.74 73.7 90.22 73.06C90.7 72.42 91.3 71.89 91.98 71.49C92.67 71.08 93.43 70.82 94.22 70.71L94.24 70.7L146.06 63.66L143.53 79.22Z" fill="#FFFFFF" fill-opacity="1.000000" fill-rule="evenodd"/>
		<path id="Vector" d="M143.53 79.22L95.97 83.09C94.33 83.22 92.7 82.72 91.42 81.69C90.13 80.66 89.29 79.18 89.06 77.55C88.95 76.76 89 75.96 89.19 75.19C89.39 74.42 89.74 73.7 90.22 73.06C90.7 72.42 91.3 71.89 91.98 71.49C92.67 71.08 93.43 70.82 94.22 70.71L94.24 70.7L146.06 63.66" stroke="#000000" stroke-opacity="1.000000" stroke-width="1.716000" stroke-linejoin="round" stroke-linecap="round"/>
		<path id="Vector" d="M143.53 79.22L110.2 81.22C108.55 81.32 106.92 80.79 105.63 79.74C104.35 78.69 103.51 77.19 103.28 75.55C103.17 74.77 103.21 73.97 103.41 73.2C103.61 72.43 103.96 71.7 104.44 71.07C104.92 70.44 105.51 69.9 106.2 69.5C106.88 69.09 107.64 68.83 108.43 68.72L108.46 68.71L146.06 63.66L143.53 79.22Z" fill="#FFFFFF" fill-opacity="1.000000" fill-rule="evenodd"/>
		<path id="Vector" d="M143.53 79.22L110.2 81.22C108.55 81.32 106.92 80.79 105.63 79.74C104.35 78.69 103.51 77.19 103.28 75.55C103.17 74.77 103.21 73.97 103.41 73.2C103.61 72.43 103.96 71.7 104.44 71.07C104.92 70.44 105.51 69.9 106.2 69.5C106.88 69.09 107.64 68.83 108.43 68.72L108.46 68.71L146.06 63.66" stroke="#000000" stroke-opacity="1.000000" stroke-width="1.320000" stroke-linejoin="round" stroke-linecap="round"/>
		<path id="Vector" d="M88.64 173.83C89.03 173.07 89.26 172.24 89.33 171.38C89.4 170.53 89.3 169.67 89.03 168.86C88.77 168.04 88.35 167.29 87.79 166.64C87.23 165.99 86.55 165.45 85.79 165.06C85.03 164.67 84.2 164.44 83.34 164.37C82.49 164.3 81.63 164.41 80.82 164.67C80 164.94 79.25 165.36 78.6 165.91C77.95 166.47 77.41 167.15 77.02 167.91L70.51 180.7C70.11 181.46 69.87 182.3 69.8 183.15C69.73 184.01 69.83 184.87 70.09 185.69C70.36 186.51 70.78 187.26 71.34 187.92C71.89 188.57 72.57 189.11 73.34 189.5C74.11 189.89 74.94 190.13 75.8 190.19C76.65 190.26 77.52 190.15 78.33 189.89C79.15 189.62 79.9 189.19 80.56 188.63C81.21 188.07 81.74 187.39 82.13 186.62L88.64 173.83Z" fill="#FFFFFF" fill-opacity="1.000000" fill-rule="nonzero"/>
		<path id="Vector" d="M89.33 171.38C89.4 170.53 89.3 169.67 89.03 168.86C88.77 168.04 88.35 167.29 87.79 166.64C87.23 165.99 86.55 165.45 85.79 165.06C85.03 164.67 84.2 164.44 83.34 164.37C82.49 164.3 81.63 164.41 80.82 164.67C80 164.94 79.25 165.36 78.6 165.91C77.95 166.47 77.41 167.15 77.02 167.91L70.51 180.7C70.11 181.46 69.87 182.3 69.8 183.15C69.73 184.01 69.83 184.87 70.09 185.69C70.36 186.51 70.78 187.26 71.34 187.92C71.89 188.57 72.57 189.11 73.34 189.5C74.11 189.89 74.94 190.13 75.8 190.19C76.65 190.26 77.52 190.15 78.33 189.89C79.15 189.62 79.9 189.19 80.56 188.63C81.21 188.07 81.74 187.39 82.13 186.62L88.64 173.83C89.03 173.07 89.26 172.24 89.33 171.38Z" stroke="#000000" stroke-opacity="1.000000" stroke-width="1.320000" stroke-linejoin="round"/>
		<path id="Vector" d="M100.26 179.75C100.67 178.99 100.91 178.15 100.99 177.29C101.07 176.43 100.97 175.56 100.71 174.74C100.45 173.92 100.03 173.15 99.47 172.49C98.91 171.83 98.23 171.29 97.46 170.9C96.69 170.51 95.85 170.27 94.98 170.21C94.12 170.14 93.26 170.25 92.44 170.52C91.62 170.8 90.86 171.23 90.21 171.8C89.56 172.37 89.03 173.06 88.64 173.83L82.13 186.62C81.73 187.38 81.49 188.22 81.42 189.07C81.35 189.93 81.45 190.79 81.71 191.61C81.98 192.43 82.4 193.19 82.96 193.84C83.51 194.5 84.2 195.03 84.96 195.42C85.73 195.81 86.56 196.05 87.42 196.11C88.28 196.18 89.14 196.08 89.95 195.81C90.77 195.54 91.53 195.11 92.18 194.55C92.83 193.99 93.36 193.31 93.75 192.54L100.26 179.75Z" fill="#FFFFFF" fill-opacity="1.000000" fill-rule="nonzero"/>
		<path id="Vector" d="M100.99 177.29C101.07 176.43 100.97 175.56 100.71 174.74C100.45 173.92 100.03 173.15 99.47 172.49C98.91 171.83 98.23 171.29 97.46 170.9C96.69 170.51 95.85 170.27 94.98 170.21C94.12 170.14 93.26 170.25 92.44 170.52C91.62 170.8 90.86 171.23 90.21 171.8C89.56 172.37 89.03 173.06 88.64 173.83L82.13 186.62C81.73 187.38 81.49 188.22 81.42 189.07C81.35 189.93 81.45 190.79 81.71 191.61C81.98 192.43 82.4 193.19 82.96 193.84C83.51 194.5 84.2 195.03 84.96 195.42C85.73 195.81 86.56 196.05 87.42 196.11C88.28 196.18 89.14 196.08 89.95 195.81C90.77 195.54 91.53 195.11 92.18 194.55C92.83 193.99 93.36 193.31 93.75 192.54L100.26 179.75C100.67 178.99 100.91 178.15 100.99 177.29Z" stroke="#000000" stroke-opacity="1.000000" stroke-width="1.320000" stroke-linejoin="round"/>
		<path id="Vector" d="M111.89 185.68C112.28 184.91 112.52 184.08 112.59 183.22C112.66 182.36 112.56 181.5 112.3 180.68C112.04 179.87 111.62 179.11 111.06 178.45C110.5 177.8 109.82 177.26 109.05 176.87C108.29 176.48 107.45 176.25 106.6 176.18C105.74 176.11 104.88 176.22 104.06 176.49C103.24 176.75 102.49 177.18 101.84 177.74C101.19 178.3 100.65 178.99 100.27 179.76L93.75 192.54C93.35 193.31 93.1 194.14 93.02 195C92.95 195.86 93.04 196.73 93.3 197.56C93.56 198.38 93.99 199.14 94.55 199.8C95.1 200.46 95.79 201 96.56 201.4C97.33 201.79 98.17 202.02 99.03 202.09C99.89 202.15 100.76 202.04 101.58 201.77C102.4 201.5 103.16 201.07 103.81 200.5C104.46 199.93 104.99 199.24 105.37 198.46L111.89 185.68Z" fill="#FFFFFF" fill-opacity="1.000000" fill-rule="nonzero"/>
		<path id="Vector" d="M112.59 183.22C112.66 182.36 112.56 181.5 112.3 180.68C112.04 179.87 111.62 179.11 111.06 178.45C110.5 177.8 109.82 177.26 109.05 176.87C108.29 176.48 107.45 176.25 106.6 176.18C105.74 176.11 104.88 176.22 104.06 176.49C103.24 176.75 102.49 177.18 101.84 177.74C101.19 178.3 100.65 178.99 100.27 179.76L93.75 192.54C93.35 193.31 93.1 194.14 93.02 195C92.95 195.86 93.04 196.73 93.3 197.56C93.56 198.38 93.99 199.14 94.55 199.8C95.1 200.46 95.79 201 96.56 201.4C97.33 201.79 98.17 202.02 99.03 202.09C99.89 202.15 100.76 202.04 101.58 201.77C102.4 201.5 103.16 201.07 103.81 200.5C104.46 199.93 104.99 199.24 105.37 198.46L111.89 185.68C112.28 184.91 112.52 184.08 112.59 183.22Z" stroke="#000000" stroke-opacity="1.000000" stroke-width="1.320000" stroke-linejoin="round"/>
		<path id="Vector" d="M123.51 191.6C123.9 190.83 124.14 190 124.21 189.14C124.29 188.29 124.19 187.42 123.92 186.61C123.66 185.79 123.24 185.03 122.68 184.38C122.12 183.72 121.44 183.18 120.68 182.79C119.91 182.4 119.07 182.17 118.22 182.1C117.36 182.04 116.5 182.14 115.68 182.41C114.87 182.68 114.11 183.1 113.46 183.66C112.81 184.23 112.27 184.91 111.89 185.68L105.37 198.46C104.99 199.23 104.75 200.06 104.68 200.91C104.62 201.77 104.72 202.62 104.98 203.44C105.25 204.25 105.67 205.01 106.23 205.66C106.78 206.31 107.46 206.84 108.22 207.23C108.99 207.62 109.82 207.86 110.67 207.92C111.53 207.99 112.38 207.89 113.2 207.62C114.01 207.36 114.77 206.94 115.42 206.38C116.07 205.82 116.6 205.15 116.99 204.38L123.51 191.6Z" fill="#FFFFFF" fill-opacity="1.000000" fill-rule="nonzero"/>
		<path id="Vector" d="M124.21 189.14C124.29 188.29 124.19 187.42 123.92 186.61C123.66 185.79 123.24 185.03 122.68 184.38C122.12 183.72 121.44 183.18 120.68 182.79C119.91 182.4 119.07 182.17 118.22 182.1C117.36 182.04 116.5 182.14 115.68 182.41C114.87 182.68 114.11 183.1 113.46 183.66C112.81 184.23 112.27 184.91 111.89 185.68L105.37 198.46C104.99 199.23 104.75 200.06 104.68 200.91C104.62 201.77 104.72 202.62 104.98 203.44C105.25 204.25 105.67 205.01 106.23 205.66C106.78 206.31 107.46 206.84 108.22 207.23C108.99 207.62 109.82 207.86 110.67 207.92C111.53 207.99 112.38 207.89 113.2 207.62C114.01 207.36 114.77 206.94 115.42 206.38C116.07 205.82 116.6 205.15 116.99 204.38L123.51 191.6C123.9 190.83 124.14 190 124.21 189.14Z" stroke="#000000" stroke-opacity="1.000000" stroke-width="1.320000" stroke-linejoin="round"/>
	</g>
</svg>
